<svg xmlns="http://www.w3.org/2000/svg" xmlns:xlink="http://www.w3.org/1999/xlink" xmlns:s="https://github.com/nturley/netlistsvg" width="545" height="122">
  <style>svg {
    stroke:#000;
    fill:none;
  }
  text {
    fill:#000;
    stroke:none;
    font-size:10px;
    font-weight: bold;
    font-family: "Courier New", monospace;
  }
  .nodelabel {
    text-anchor: middle;
  }
  .inputPortLabel {
    text-anchor: end;
  }
  .splitjoinBody {
    fill:#000;
  }</style>
  <g s:type="generic" transform="translate(123,22)" s:width="30" s:height="40">
    <text x="15" y="-4" class="nodelabel" s:attribute="ref">div</text>
    <rect width="30" height="40" s:generic="body"/>
    <g transform="translate(0,10)" s:x="0" s:y="10" s:pid="in0">
      <text x="-3" y="-4" class="inputPortLabel">clock</text>
    </g>
    <g transform="translate(0,30)" s:x="0" s:y="10" s:pid="in0">
      <text x="-3" y="-4" class="inputPortLabel">reset</text>
    </g>
    <g transform="translate(30,10)" s:x="30" s:y="10" s:pid="out0">
      <text x="5" y="-4" style="fill:#000; stroke:none">slow_clock</text>
    </g>
  </g>
  <g s:type="generic" transform="translate(409,67)" s:width="30" s:height="40">
    <text x="15" y="-4" class="nodelabel" s:attribute="ref">mem</text>
    <rect width="30" height="40" s:generic="body"/>
    <g transform="translate(0,10)" s:x="0" s:y="10" s:pid="in0">
      <text x="-3" y="-4" class="inputPortLabel">addr</text>
    </g>
    <g transform="translate(0,30)" s:x="0" s:y="10" s:pid="in0">
      <text x="-3" y="-4" class="inputPortLabel">clock</text>
    </g>
    <g transform="translate(30,10)" s:x="30" s:y="10" s:pid="out0">
      <text x="5" y="-4" style="fill:#000; stroke:none">num</text>
    </g>
  </g>
  <g s:type="generic" transform="translate(281,67)" s:width="30" s:height="40">
    <text x="15" y="-4" class="nodelabel" s:attribute="ref">pc</text>
    <rect width="30" height="40" s:generic="body"/>
    <g transform="translate(0,10)" s:x="0" s:y="10" s:pid="in0">
      <text x="-3" y="-4" class="inputPortLabel">clock</text>
    </g>
    <g transform="translate(0,30)" s:x="0" s:y="10" s:pid="in0">
      <text x="-3" y="-4" class="inputPortLabel">reset</text>
    </g>
    <g transform="translate(30,10)" s:x="30" s:y="10" s:pid="out0">
      <text x="5" y="-4" style="fill:#000; stroke:none">count</text>
    </g>
  </g>
  <g s:type="inputExt" transform="translate(12,22.5)" s:width="30" s:height="20">
    <text x="15" y="-4" class="nodelabel" s:attribute="ref">clock</text>
    <s:alias val="$_inputExt_"/>
    <path d="M0,0 L0,20 L15,20 L30,10 L15,0 Z"/>
    <g s:x="28" s:y="10" s:pid="Y"/>
  </g>
  <g s:type="inputExt" transform="translate(12,87.5)" s:width="30" s:height="20">
    <text x="15" y="-4" class="nodelabel" s:attribute="ref">reset</text>
    <s:alias val="$_inputExt_"/>
    <path d="M0,0 L0,20 L15,20 L30,10 L15,0 Z"/>
    <g s:x="28" s:y="10" s:pid="Y"/>
  </g>
  <g s:type="outputExt" transform="translate(494,67.5)" s:width="30" s:height="20">
    <text x="15" y="-4" class="nodelabel" s:attribute="ref">led</text>
    <s:alias val="$_outputExt_"/>
    <path d="M30,0 L30,20 L15,20 L0,10 L15,0 Z"/>
    <g s:x="0" s:y="10" s:pid="A"/>
  </g>
  <line x1="40" x2="123" y1="32.5" y2="32.5"/>
  <line x1="40" x2="67" y1="97.5" y2="97.5"/>
  <line x1="67" x2="67" y1="97.5" y2="52.5"/>
  <circle cx="67" cy="97.5" r="2" style="fill:#000"/>
  <line x1="67" x2="123" y1="52.5" y2="52.5"/>
  <line x1="40" x2="281" y1="97.5" y2="97.5"/>
  <line x1="312" x2="409" y1="77.5" y2="77.5"/>
  <line x1="154" x2="353" y1="32.5" y2="32.5"/>
  <line x1="353" x2="353" y1="32.5" y2="97.5"/>
  <line x1="353" x2="409" y1="97.5" y2="97.5"/>
  <line x1="154" x2="225" y1="32.5" y2="32.5"/>
  <line x1="225" x2="225" y1="32.5" y2="77.5"/>
  <circle cx="225" cy="32.5" r="2" style="fill:#000"/>
  <line x1="225" x2="281" y1="77.5" y2="77.5"/>
  <line x1="440" x2="494" y1="77.5" y2="77.5"/>
</svg>
