<svg xmlns="http://www.w3.org/2000/svg" xmlns:xlink="http://www.w3.org/1999/xlink" xmlns:s="https://github.com/nturley/netlistsvg" width="387" height="187">
  <style>svg {
    stroke:#000;
    fill:none;
  }
  text {
    fill:#000;
    stroke:none;
    font-size:10px;
    font-weight: bold;
    font-family: "Courier New", monospace;
  }
  .nodelabel {
    text-anchor: middle;
  }
  .inputPortLabel {
    text-anchor: end;
  }
  .splitjoinBody {
    fill:#000;
  }</style>
  <g s:type="generic" transform="translate(251,69.5)" s:width="30" s:height="40">
    <text x="15" y="-4" class="nodelabel" s:attribute="ref">count</text>
    <rect width="30" height="60" s:generic="body"/>
    <g transform="translate(0,10)" s:x="0" s:y="10" s:pid="in0">
      <text x="-3" y="-4" class="inputPortLabel">clk</text>
    </g>
    <g transform="translate(0,30)" s:x="0" s:y="10" s:pid="in0">
      <text x="-3" y="-4" class="inputPortLabel">en</text>
    </g>
    <g transform="translate(0,50)" s:x="0" s:y="10" s:pid="in0">
      <text x="-3" y="-4" class="inputPortLabel">rst</text>
    </g>
    <g transform="translate(30,10)" s:x="30" s:y="10" s:pid="out0">
      <text x="5" y="-4" style="fill:#000; stroke:none">out</text>
    </g>
  </g>
  <g s:type="generic" transform="translate(123,22)" s:width="30" s:height="40">
    <text x="15" y="-4" class="nodelabel" s:attribute="ref">div</text>
    <rect width="30" height="20" s:generic="body"/>
    <g transform="translate(0,10)" s:x="0" s:y="10" s:pid="in0">
      <text x="-3" y="-4" class="inputPortLabel">clk_in</text>
    </g>
    <g transform="translate(30,10)" s:x="30" s:y="10" s:pid="out0">
      <text x="5" y="-4" style="fill:#000; stroke:none">clk_out</text>
    </g>
  </g>
  <g s:type="inputExt" transform="translate(12,22.5)" s:width="30" s:height="20">
    <text x="15" y="-4" class="nodelabel" s:attribute="ref">clk</text>
    <s:alias val="$_inputExt_"/>
    <path d="M0,0 L0,20 L15,20 L30,10 L15,0 Z"/>
    <g s:x="28" s:y="10" s:pid="Y"/>
  </g>
  <g s:type="inputExt" transform="translate(123,155)" s:width="30" s:height="20">
    <text x="15" y="-4" class="nodelabel" s:attribute="ref">rst</text>
    <s:alias val="$_inputExt_"/>
    <path d="M0,0 L0,20 L15,20 L30,10 L15,0 Z"/>
    <g s:x="28" s:y="10" s:pid="Y"/>
  </g>
  <g s:type="inputExt" transform="translate(123,90)" s:width="30" s:height="20">
    <text x="15" y="-4" class="nodelabel" s:attribute="ref">en</text>
    <s:alias val="$_inputExt_"/>
    <path d="M0,0 L0,20 L15,20 L30,10 L15,0 Z"/>
    <g s:x="28" s:y="10" s:pid="Y"/>
  </g>
  <g s:type="outputExt" transform="translate(336,70)" s:width="30" s:height="20">
    <text x="15" y="-4" class="nodelabel" s:attribute="ref">out</text>
    <s:alias val="$_outputExt_"/>
    <path d="M30,0 L30,20 L15,20 L0,10 L15,0 Z"/>
    <g s:x="0" s:y="10" s:pid="A"/>
  </g>
  <line x1="154" x2="207" y1="32.5" y2="32.5"/>
  <line x1="207" x2="207" y1="32.5" y2="80"/>
  <line x1="207" x2="251" y1="80" y2="80"/>
  <line x1="151" x2="251" y1="100" y2="100"/>
  <line x1="151" x2="207" y1="165" y2="165"/>
  <line x1="207" x2="207" y1="165" y2="120"/>
  <line x1="207" x2="251" y1="120" y2="120"/>
  <line x1="40" x2="123" y1="32.5" y2="32.5"/>
  <line x1="282" x2="336" y1="80" y2="80"/>
</svg>
